<svg xmlns="http://www.w3.org/2000/svg" viewBox="0 0 1600 900" fill="none">
  <defs>
    <radialGradient id="g1" cx="20%" cy="30%" r="55%">
      <stop offset="0%" stop-color="#1aa891" stop-opacity="0.45"/>
      <stop offset="100%" stop-color="#1aa891" stop-opacity="0"/>
    </radialGradient>
    <radialGradient id="g2" cx="80%" cy="20%" r="50%">
      <stop offset="0%" stop-color="#2a6f97" stop-opacity="0.4"/>
      <stop offset="100%" stop-color="#2a6f97" stop-opacity="0"/>
    </radialGradient>
    <linearGradient id="line" x1="0" y1="0" x2="1" y2="1">
      <stop offset="0%" stop-color="#effaf6" stop-opacity="0.55"/>
      <stop offset="100%" stop-color="#effaf6" stop-opacity="0.05"/>
    </linearGradient>
  </defs>
  <rect width="1600" height="900" fill="#0a3d3a"/>
  <rect width="1600" height="900" fill="url(#g1)"/>
  <rect width="1600" height="900" fill="url(#g2)"/>
  <g stroke="url(#line)" stroke-width="1.5">
    <path d="M120 180 L420 280 L680 160 L980 320 L1280 210 L1480 360"/>
    <path d="M80 520 L360 430 L620 560 L900 420 L1180 540 L1520 470"/>
    <path d="M200 760 L480 650 L760 740 L1040 620 L1360 700"/>
    <path d="M420 280 L360 430 M680 160 L620 560 M980 320 L900 420 M1280 210 L1180 540"/>
    <path d="M420 280 L480 650 M680 160 L760 740 M980 320 L1040 620"/>
  </g>
  <g fill="#effaf6">
    <circle cx="420" cy="280" r="7" fill-opacity="0.9"/>
    <circle cx="680" cy="160" r="6" fill-opacity="0.75"/>
    <circle cx="980" cy="320" r="8" fill-opacity="0.95"/>
    <circle cx="1280" cy="210" r="6" fill-opacity="0.8"/>
    <circle cx="360" cy="430" r="5" fill-opacity="0.7"/>
    <circle cx="900" cy="420" r="7" fill-opacity="0.85"/>
    <circle cx="760" cy="740" r="6" fill-opacity="0.7"/>
    <circle cx="1180" cy="540" r="7" fill-opacity="0.85"/>
  </g>
  <g opacity="0.18" stroke="#effaf6" stroke-width="1">
    <circle cx="980" cy="320" r="54"/>
    <circle cx="980" cy="320" r="92"/>
    <circle cx="420" cy="280" r="40"/>
  </g>
</svg>
